<svg xmlns="http://www.w3.org/2000/svg" width="562" height="562"><g fill="none" fill-rule="evenodd" transform="translate(0 1)"><circle cx="281" cy="280" r="280.9" fill="#0E6A31"/><circle cx="281" cy="281" r="270.9" stroke="#FFF" stroke-width="6"/><path stroke="#FFF" stroke-width="2" d="M118.3 281a163 163 0 0 0 162.2 162.8 163 163 0 0 0 163.3-162.3 163 163 0 0 0-162.3-163.2A163 163 0 0 0 118.3 281Z"/><g fill="#F3E600" stroke="#FFF"><path d="M268.2 399.3a15 15 0 0 1-.9-16.9q.7-1.4 1.9-.3c6.5 5.9 17.3 6 23.8 0 1.1-1 1.5-.5 2.1.5a16 16 0 0 1-.1 15.6c-.5.8-.8 1.2-1.9.5-9.3-6.4-15.5-6.2-24.9.6Z"/><path d="M271.5 402.7a13 13 0 0 1 19.2 0c-5.2 5.2-15 4.5-19.2 0Zm9-28.2q5.5 0 9.2 2.6 1.6.9.1 2.1a14 14 0 0 1-17.4.1q-1.6-1.4.2-2.2 4.2-2.6 7.9-2.6Z"/></g><g stroke="#FFF"><path fill="#0E6A31" d="M265.1 242.5c0 12.5-3.8 23.4-14.1 31.1a41 41 0 0 1-28.7 7 50 50 0 0 1-32.8-16 66 66 0 0 1-18.6-29.9 37 37 0 0 1 10.2-37.9c10.8-10.8 23.9-14.8 38.3-10.1a64 64 0 0 1 44 42.3q2 6.7 1.7 13.5ZM252.7 269l.5-.4c2.2-1.4 2-3.7 1.8-5.8-.2-2.6.1-4.5 3.5-3.8q1.7.3 1.8-1.3c0-1.2-1.1-.9-1.6-.8q-4.5.7-3.6-3.7v-1.7c0-4.5 0-4.4 4.4-4.6 1.1 0 3.4 1.2 3.3-1.1 0-1.8-2.1-.9-3.2-.9-4.5-.1-4.5-.1-4.5-4.5 0-5.2 0-5.1 5.2-5.4.7 0 1.9.6 1.8-.9-.1-1.1-.9-1.1-1.9-1.2-5.2-.3-5.2-.3-5.2-5.7v-2.3c-.1-1.2.2-2 1.7-1.9.5 0 1.5.4 1.4-.7 0-.6-.4-1.4-1.2-1.3-2.1.2-2-1.2-1.9-2.5a5 5 0 0 0-2.1-4.6v5.4q.2 1.8-1.8 1.8c-8.2.4-8.2.4-8.1-7.6v-.8q-.3-2.2 2-1.9h5.4c-.6-2.4-2.3-2.3-3.7-2.1q-4.3.8-3.7-3.6c.2-1.5.3-3.3-2.1-3.5v2.4c0 4.8 0 4.8-4.7 4.8-5.1 0-5.1 0-5.1-5.3 0-5 0-5 4.8-5.4l.3-.4a9 9 0 0 0-8.1-1.8h-7.3q-1.9 0-1.6-1.7v-2.3c0-.9.1-2.1-1.3-2.1s-.8 1.2-.9 1.9c-.2 4-.1 4.1-4.3 4-1.7 0-3.8.5-5-.3-1.5-1-.3-3.3-.6-5-.1-.7.2-1.6-1-1.7-1.3-.1-1.1 1-1.2 1.8-.4 5.2-.4 5.2-5.7 5.2h-1.4q-3.3.6-2.8-2.8c.1-.6.5-1.7-.7-1.7q-1.4 0-1.3 1.5c.6 3.1-1.3 3.1-3.5 3-1.9-.1-4-.5-5.2 2.1q3 .2 5.8 0c2.4-.3 3 .7 3 3-.1 7.8 0 7.7-7.9 7.7-2 0-2.4-.7-2.4-2.5 0-2.2.3-4.4-.3-6.6-2.5 1.3-1.8 3.5-1.8 5.4.1 2.5 0 4.4-3.3 3.7q-1.7-.2-1.8 1.3c0 1.1 1.2.8 1.8.7 2.9-.4 3.7.9 3.3 3.5v2.3c0 4.6 0 4.6-4.5 4.7-1.1 0-3.1-.9-3.1 1 0 2 2.1 1 3.2 1 4.5.1 4.5.1 4.5 4.5v.3c0 4.9 0 4.9-4.9 5.1-.7 0-1.9-.5-1.8.9 0 1.2 1 1.1 1.8 1.2 4.9.3 4.9.4 4.9 5.4v2.5c.1 1.2-.2 2.1-1.7 1.9-.4 0-1-.1-1.1.6 0 .6.3 1.4.8 1.4 2.5 0 1.9 1.7 2 3.1 0 1.4.8 2.3 2.1 3.7v-3.4c-.3-2.4.4-3.4 3.1-3.3 7.3.2 7.3.1 7.1 7.9q0 2.3-2.1 2.1c-1.8 0-3.7-.3-5.6.2 1.5 1.7 1.5 1.7 2.8 1.8 4.6.3 4.7.3 4.8 4.7 0 1.4.4 2.3 2.1 2.7v-2.9c0-4.6 0-4.6 4.6-4.6 5.3 0 5.3 0 5.3 5.4 0 4.5 0 4.5-4.4 4.6l-2.2.2c2.2 1.8 2.2 1.8 4.3 1.8 1.3 0 2.5-.2 2.4 1.8q.2 1.1 1.4 1.1c.8 0 .6-.8.6-1.3q0-1.8 1.8-1.5h4.2c3.9 0 3.8 0 3.9 3.9 0 1.1-.8 2.9 1.1 2.9s.9-1.9.9-2.9c.2-4.4-.6-3.8 4-3.9 5.6 0 5.6 0 5.9 5.8 0 .8-.3 1.9 1 1.9 1.3.1 1-1 1.1-1.8.2-1.9-1-4.5.6-5.5 1.4-.9 3.8-.3 5.8-.4h.6q3.5-.6 2.9 3c-.1.7-.7 2.2.8 2.2 1.4 0 1.4-1.3 1.3-2.3-.4-2.6.9-2.9 3-2.8 2.4 0 5 .6 6.7-2Zm82.2 11.9c-19-.1-32.5-9.5-36.8-26a46 46 0 0 1 1.9-30.8 64 64 0 0 1 44.8-37.8c26.7-6.4 51.2 17.4 47 44.5-2.8 18.2-23.8 45-46 49a40 40 0 0 1-10.9 1.1Zm-26.5-66.7c-1.6 2.1-1.6 2.1-1.6 4.1 0 1.4.3 2.9-2 2.8-.7 0-1.1.8-1.2 1.4-.1.9.8.7 1.2.6 1.9-.3 2 .8 1.9 2.2v4c0 4.3.4 3.6-3.8 3.7-1.1 0-3.2-.8-3.1 1.2.1 1.8 2 .8 3 .8 4.5.2 3.9-.5 4 3.9 0 5.8 0 5.8-5.7 6-.8 0-2.1-.5-2.1 1.1 0 1.3 1.1 1 1.9 1 5.9.3 5.9.3 5.9 6.4v.3q.7 3.8-3.2 3.3c-.7-.1-1.9-.6-2 .7-.1 1.1.9 1.6 2 1.4 3.3-.6 3.4 1.2 3.3 3.7-.1 1.9-.8 4.2 2.1 5.8v-7.5q-.2-2 1.9-2c8.2-.5 8.2-.5 8 7.7v.3q.3 2-1.9 1.9h-7.4c1 2.3 2.7 2.1 4.4 2.2 2.6 0 6.1-1 5 3.9-.2.8.6 1.2 1.2 1.3 1.1.1.8-.7.9-1.3.4-3.8.4-3.8 4.3-3.8h3.1q3-.5 2.5 2.5v1.7c.4 1.2-1 3.4 1 3.5 2.2 0 1-2.2 1-3.4.2-4.2.1-4.2 4.4-4.2 5.2 0 5.2 0 5.5 5.1 0 .7-.3 1.7.8 1.7 1.2.1 1.3-.8 1.3-1.7.1-1.7-.8-4 .5-4.8s3.5-.3 5.2-.3h2c1.4-.1 2.5 0 2.2 1.9q-.2.9.6 1c.3 0 .9-.3.9-.5.3-2.9 2.4-2.3 4.3-2.5q1.6-.2 3-2.1h-4.6q-2.3.3-2.1-2c.4-9.7-2.1-7.5 7.9-7.8q2.4-.1 2 2.2v5.3c1.7-.6 2.1-1.4 2.2-2.7.2-4.6.3-4.6 4.7-4.8 1.4-.1 2.5-.4 2.7-2.2h-3c-4.4 0-4.4 0-4.4-4.3 0-5.6 0-5.6 5.6-5.6 4.5 0 4.5 0 4.6 4.4 0 .5-.5 1.3.5 1.7a4 4 0 0 0 1.6-4c-.1-1.1-.1-2.1 1.5-2.1q1.2-.1 1.2-1.3c0-1-.9-.7-1.4-.8q-.9 0-1.2-.5c-.1-2.9-.5-5.9.2-8.7.3-1.4 2.9-.4 4.4-.6h.8q1.2 0 1.2-1.2c0-1-.7-.9-1.4-.9h-2c-3 .6-3.8-.8-3.4-3.5.2-1.9-.5-4.4.4-5.7 1.1-1.5 3.7-.3 5.6-.5.8-.1 1.8.3 1.8-1.1 0-1.3-1.1-1-1.9-1.1-1.9-.2-4.5.9-5.6-.6-.9-1.4-.3-3.8-.3-5.8v-.3c-.4-2.6.2-4.2 3.4-3.6.6.1 1.7.5 1.7-.7q0-1.4-1.5-1.3c-4.3.9-3.5-2.1-3.6-4.6 0-1.7.4-3.6-2-4.6l-.1 1.5c-.3 2.5 1.2 5.9-.7 7.2-1.7 1.2-4.9.2-7.4.4q-2.4 0-2-2.1v-6.2q-.2-2.5 2.3-2.2h6.5c-1.5-2.6-3.6-2.2-5.5-2.1-2.1.1-3.8.1-3.3-2.8.2-.9-.3-1.8-1.4-1.6-1.2.1-.6 1.2-.7 1.8-.2.9.5 2.4-.6 2.5-2.9.3-6 .6-8.7-.1-1.4-.4-.3-3.1-.6-4.7v-.8q.1-1.2-1.1-1.3-1 .1-1 1.1v1.4c-.1 4.6-.1 4.6-4.6 4.6h-.6c-4.5 0-4.4 0-4.7-4.5 0-.6.4-1.7-.9-1.6-1.2 0-1.2.8-1.3 1.8-.3 4.4-.3 4.4-4.8 4.4H337c-1.4-.4-3.7 1.3-4.1-1.8-.1-.7-1.5-.1-1.5.3-.4 1.6-1.5 1.5-2.8 1.6q-1.7 0-2.9 1.9c5.2.2 5.2.2 5.2 3.4 0 7.7 0 7.6-7.9 7.2q-2.1 0-1.9-2v-5.3c-2.2.5-2.2 1.9-2.2 3.3 0 3.9 0 3.9-3.8 3.9-1.5 0-3.1-.1-3.3 1.9 2.3 1.1 5.7-1.3 6.9 1.3 1 2.1.2 5 .2 7.5v.6q0 1.2-1.2 1.2c-2.7 0-5.8.7-8.1-.4-1.7-.8-.3-4-.7-6-.1-.7-.3-.7-.5-1Z"/><g fill="#FFF"><path d="M333.8 288.9c-8.2-.1-14.6-.9-21-.3a44 44 0 0 0-27.3 12.7q-9.4 9.2-18.5 18.7c-1.4 1.5-2.3 2-3.9.1q-2.8-3.2-6-6c-1.4-1.2-1.2-1.9 0-3.1q7.8-7.8 15.8-15.4a49 49 0 0 0 16.1-43.8c-2.4-23.1 6.8-41.2 23.8-56.1 9.7-8.4 20.4-15 33.3-16.7a46 46 0 0 1 50.4 60c-8 24-24.4 40.7-49.2 48.2a44 44 0 0 1-13.5 1.7Zm1.1-8q5.5.1 10.9-1c22.2-4 43.2-30.9 46-49a39 39 0 0 0-47-44.5 64 64 0 0 0-44.8 37.8 45 45 0 0 0-1.9 30.8c4.3 16.5 17.8 25.9 36.8 25.9Z"/><path d="M272.7 251.1a53 53 0 0 0 5 30.2c.6 1.1.2 1.7-.4 2.5a84 84 0 0 1-8.4 9.5c-.6.6-1.1 1.1-2.2.5a50 50 0 0 0-30.9-5.5 62 62 0 0 1-54.1-22 69 69 0 0 1-17.4-30 46.3 46.3 0 0 1 57.1-56.4c22.5 6 45.1 28.7 50.2 50.6a68 68 0 0 1 1.1 20.6Zm-7.6-8.6q.3-6.8-1.6-13.4a65 65 0 0 0-44-42.3 36 36 0 0 0-38.3 10.1 37 37 0 0 0-10.2 37.9 67 67 0 0 0 18.6 29.9c9 9.1 19.7 15.1 32.8 16a41 41 0 0 0 28.7-7c10.2-7.8 14-18.6 14-31.2ZM347.4 351l13.5 14.5c1.3 1.5 1 3.2.1 4.7a19 19 0 0 1-6.3 6.3c-3.3 2-7.3-.3-7.3-4.2zM226 363.6l-14.1 13.1c-1.4 1.3-3.2.8-4.7-.2a21 21 0 0 1-5.6-5.5c-1.1-1.5-1.9-3.1-.8-5 1.1-2 2.5-3.2 5.1-3.2q10 .2 19.9.1zm80.1-50.9-.9 1.1-7 7c-1 1-1.5.9-2.5-.1l-10.3-10.5c-.9-.9-1.3-1.5-.1-2.5l7.2-6.4c.7-.6 1.3-1 2.2-.1l10.7 10.5zM222 344.4l8.2-8.6q.5-.5 1.3-.5h22.1l-8.4 8.7q-.6.4-1.3.4zm106.8 11.5-8.6-8.3a2 2 0 0 1-.6-1.5v-22l8.5 8.1q.8.9.6 2.1zM236 330l14.3-13.5q1.3-1.4 2.6.1l8 8q1.4 1.2.2 2.6c-1.7 2.2-3.6 3.7-6.8 3.5q-9-.3-18-.1zm78.3 11.5L301 327.4q-1.5-1.6.2-3l7.6-7.6q1.5-1.7 3.1-.1c2.1 1.7 3.3 3.4 3.2 6.4q-.3 9.1-.1 18.2zm-74.3 8.6-7.8 7.3q-1 .9-2.3.9h-22.3l8.9-8.9q.3-.2.8-.2h22.2zm94.5-12.6 7.5 8.3q.5.5.6 1.2v22.9l-8.5-8.3q-.7-.7-.6-1.8v-21.7zm-26.1-123.3.4.4c.4 2.1-1 5.3.7 6 2.3 1 5.3.3 8.1.4q1.2 0 1.2-1.2v-.6c0-2.5.8-5.5-.2-7.5-1.2-2.5-4.6-.2-6.9-1.3.3-2 1.8-1.9 3.3-1.9 3.8 0 3.8 0 3.8-3.9 0-1.5 0-2.8 2.2-3.3v5.3q-.2 2 1.9 2c7.9.4 7.9.4 7.9-7.2 0-3.2 0-3.2-5.2-3.4a3 3 0 0 1 2.9-1.9c1.2-.2 2.4 0 2.8-1.6.1-.4 1.5-1 1.5-.3.4 3.1 2.7 1.4 4.1 1.8h1.1c4.4 0 4.5 0 4.8-4.4.1-.9.2-1.7 1.3-1.8 1.3 0 .8 1 .9 1.6.3 4.5.3 4.5 4.7 4.5h.6c4.5 0 4.5 0 4.6-4.6v-1.4q-.1-1 1-1.1 1.2 0 1.1 1.3v.8c.2 1.6-.9 4.3.6 4.7 2.7.7 5.8.4 8.7.1 1.1-.1.5-1.6.6-2.5.1-.6-.5-1.7.7-1.8q1.7 0 1.4 1.6c-.5 2.9 1.2 2.9 3.3 2.8 1.9-.1 4-.5 5.5 2.1h-6.5q-2.5-.3-2.3 2.2v6.2q-.4 2.3 2 2.1c2.5-.2 5.7.8 7.4-.4 1.9-1.3.4-4.7.7-7.2l.1-1.5c2.4 1 2 2.9 2 4.6 0 2.4-.8 5.4 3.6 4.6q1.4-.1 1.5 1.3c0 1.3-1.1.9-1.7.7-3.1-.6-3.7 1-3.4 3.6v.3c.1 2-.6 4.4.3 5.8 1 1.6 3.7.4 5.6.6.8.1 1.8-.3 1.9 1.1s-1 1-1.8 1.1c-1.9.2-4.6-.9-5.6.5s-.2 3.8-.4 5.7c-.3 2.7.4 4.1 3.4 3.5h2c.6 0 1.4 0 1.4.9q0 1.2-1.2 1.2h-.8c-1.5.2-4.1-.8-4.4.6-.6 2.8-.2 5.8-.2 8.7 0 .5.7.5 1.2.5.6.1 1.5-.3 1.4.8q0 1.2-1.2 1.3c-1.6 0-1.6 1-1.5 2.1q.2 2.4-1.6 4c-1-.3-.5-1.1-.5-1.7-.1-4.4-.1-4.4-4.6-4.4-5.6 0-5.6 0-5.6 5.6 0 4.3 0 4.3 4.4 4.3h3c-.2 1.8-1.3 2.1-2.7 2.2-4.4.2-4.4.2-4.7 4.8-.1 1.3-.4 2.1-2.2 2.7V261q.4-2.2-2-2.2c-10 .3-7.5-1.9-7.9 7.8q-.1 2.4 2.1 2h4.6q-1.3 2-3 2.1c-1.9.2-4-.4-4.3 2.5 0 .2-.6.5-.9.5q-.8-.2-.6-1c.3-1.9-.9-2-2.2-1.9h-2c-1.8 0-4-.5-5.2.3s-.4 3.1-.5 4.8c-.1.9-.2 1.8-1.3 1.7s-.8-1.1-.8-1.7c-.3-5.1-.3-5.1-5.5-5.1-4.3 0-4.2 0-4.4 4.2 0 1.1 1.2 3.4-1 3.4-2 0-.7-2.3-1-3.5q-.2-.8 0-1.7.5-2.9-2.5-2.5h-3.1c-3.9 0-3.9 0-4.3 3.8-.1.6.2 1.5-.9 1.3-.7-.1-1.4-.5-1.2-1.3 1.1-4.9-2.4-3.8-5-3.9-1.7 0-3.4.2-4.4-2.2h7.4q2.2.3 1.9-1.9v-.3c.2-8.2.2-8.2-8-7.7q-2 0-1.9 2v7.5c-2.8-1.5-2.1-3.8-2.1-5.8.1-2.5-.1-4.3-3.3-3.7q-1.8.3-2-1.4c.1-1.3 1.4-.8 2-.7q3.9.6 3.2-3.3v-.3c0-6.1 0-6.1-5.9-6.4-.8 0-1.9.3-1.9-1 0-1.6 1.3-1 2.1-1.1 5.8-.2 5.8-.2 5.7-6 0-4.4.6-3.7-4-3.9-1 0-2.9 1-3-.8-.1-2 2-1.2 3.1-1.2 4.2-.1 3.8.6 3.8-3.7v-4c.1-1.4-.1-2.5-1.9-2.2-.5.1-1.3.2-1.2-.6.1-.6.4-1.5 1.2-1.4 2.3.1 2-1.4 2-2.8.1-1.3.1-1.3 1.7-3.5Zm48.4-10.9c0 5.2 0 5.2 5.1 5.2 4.8 0 4.8 0 4.8-5 0-5.5 0-5.5-4.8-5.5-5.1.1-5.1.1-5.1 5.3Zm0 12.6c0 5.1 0 5.1 4.3 5.1 5.6 0 5.6 0 5.6-5.6 0-4.7 0-4.7-4.7-4.7-5.2 0-5.2 0-5.2 5.2Zm-38.1 24.5c0-5.2 0-5.2-5.1-5.2-4.8 0-4.8 0-4.8 4.9s0 5 5.1 5c4.8-.1 4.8-.1 4.8-4.7Zm-9.9 11.6c0 5.1 0 5.1 4.9 5.1s5 0 5-5 0-4.9-5-4.9c-4.9-.1-4.9-.1-4.9 4.8Zm41-4.9c-5 0-5 0-5 5v.3c0 4.7 0 4.7 4.7 4.7 5.2 0 5.2 0 5.2-5.1 0-4.9 0-4.9-4.9-4.9Zm.1-12c-5.1 0-5.1 0-5.1 5.2 0 4.7 0 4.7 4.8 4.7 5.2 0 5.2 0 5.1-5.2 0-4.7 0-4.7-4.8-4.7Zm16.8 17c0-5 0-5-5-5s-4.9 0-4.9 4.9 0 5 5 5 4.9 0 4.9-4.9Zm0-11.9c0-5.1 0-5.1-5.2-5.1-4.7 0-4.7 0-4.7 4.8 0 5.1 0 5.1 5.2 5.1 4.7 0 4.7 0 4.7-4.8Zm7.2 4.8c5.1 0 5.1 0 5.1-4.7 0-5.2 0-5.2-5.3-5.2-4.8 0-4.8 0-4.8 4.9-.1 5-.1 5 5 5Zm-53-29.2c0 5.2 0 5.2 4.5 5.2 5.2 0 5.2 0 5.2-5.3 0-4.9 0-4.9-4.8-4.9-4.9-.1-4.9-.1-4.9 5Zm21.7 0c0-5.1 0-5.1-4.1-5.1-5.7 0-5.7 0-5.7 5.7 0 4.5 0 4.5 4.6 4.5 5.2.1 5.2.1 5.2-5.1Zm12.1.1c0-5.1 0-5.1-4.3-5.1-5.6 0-5.6 0-5.6 5.6 0 4.7 0 4.7 4.7 4.7 5.2-.1 5.2-.1 5.2-5.2ZM332.8 252c0 5 0 5 4.9 5s4.9 0 4.9-4.9 0-5-5-5c-4.8 0-4.8 0-4.8 4.9Zm41.3-41.3c-5.3 0-5.3 0-5.3 5.2v.3c0 4.8 0 4.8 4.9 4.8 5.2 0 5.2 0 5.2-5.4 0-4.9 0-4.9-4.8-4.9Zm-43.4 29.6c0-5.1 0-5.1-5.2-5.1-4.6 0-4.6 0-4.6 4.6 0 5.2 0 5.2 5.1 5.2 4.7 0 4.7 0 4.7-4.7Zm11.9-36.9v-2.8q.5-2.9-2.4-2.5h-1.7c-5.7 0-5.7 0-5.7 5.7 0 4.8 0 4.8 4.6 4.8 5.2-.1 5.2-.1 5.2-5.2Zm24.1 24.8c0-5 0-5-5-5h-.3c-4.6 0-4.6 0-4.6 4.8 0 5.1 0 5.1 5 5.1 4.9-.1 4.9-.1 4.9-4.9Zm-28.8 6.9c-5 0-5 0-5 5v.3c0 4.6 0 4.6 4.6 4.6 5.2 0 5.2 0 5.2-5.2 0-4.7 0-4.7-4.8-4.7Zm16.8-31.8c0-5.3 0-5.3-4.5-5.2-5.4 0-5.4 0-5.4 5.8 0 4.7 0 4.7 4.5 4.7 5.4-.1 5.4-.1 5.4-5.3Zm-24 49c0-5.2 0-5.2-5.1-5.2-4.7 0-4.7 0-4.7 4.7 0 5.2 0 5.2 5.1 5.2 4.7 0 4.7 0 4.7-4.7Zm19-29.1c-4.9 0-4.9 0-4.9 4.8 0 5 0 5 5 5s4.9 0 4.9-4.8c0-5 0-5-5-5Zm24.3 0c-5.2 0-5.2 0-5.2 4.6 0 5.3 0 5.3 5.3 5.3 4.8 0 4.8 0 4.9-4.8 0-5.1 0-5.1-5-5.1ZM344.8 264c0 5 0 5 5 5h.3c4.6 0 4.6 0 4.6-4.8 0-5.1 0-5.1-5-5.1-4.9.1-4.9.1-4.9 4.9Zm-2.2.2c0-5 0-5-5-5h-.3c-4.5 0-4.5 0-4.5 4.6 0 5.1 0 5.1 5.1 5.2 4.7 0 4.7 0 4.7-4.8Zm-9.7-36.2c0 5 0 5 4.7 5 5 0 5 0 5-5 0-4.8 0-4.8-4.9-4.8-4.8 0-4.8 0-4.8 4.8Zm-2.2.1c0-4.9 0-4.9-4.8-4.9h-.3c-4.7 0-4.7 0-4.7 4.8 0 5 0 5 5 5 4.8 0 4.8 0 4.8-4.9Zm-5.1 40.9c5 0 5 0 5-4.9v-.3c0-4.6 0-4.6-4.6-4.6-5.2 0-5.2 0-5.2 5.1.1 4.7.1 4.7 4.8 4.7Zm-6.9-40.8c0-5 0-5-5-5h-.3c-4.7 0-4.7 0-4.6 4.8 0 5 0 5 5 5s4.9 0 4.9-4.8Z"/></g><path fill="#FFF" d="M252.7 269c-1.6 2.6-4.3 2-6.6 1.9s-3.5.3-3 2.8c.2 1 .1 2.4-1.3 2.3-1.5 0-.9-1.5-.8-2.2q.6-3.5-2.9-3h-.6c-2 .1-4.4-.5-5.8.4-1.6 1-.4 3.6-.6 5.5-.1.8.2 1.9-1.1 1.8s-1-1.1-1-1.9c-.3-5.8-.3-5.8-5.9-5.8-4.6 0-3.8-.5-4 3.9 0 1 1 2.9-.9 2.9s-1.1-1.9-1.1-2.9c-.1-3.9-.1-3.9-3.9-3.9H209c-1.1 0-1.8.2-1.8 1.5 0 .5.2 1.3-.6 1.3q-1.2 0-1.4-1.1c.1-1.9-1.2-1.7-2.4-1.8-2 0-2-.1-4.3-1.8l2.2-.2c4.4-.1 4.4-.1 4.4-4.6 0-5.4 0-5.4-5.3-5.4-4.6 0-4.6 0-4.6 4.6v2.9c-1.7-.4-2.1-1.4-2.1-2.7-.1-4.5-.2-4.5-4.8-4.7-1.4-.1-1.4-.1-2.8-1.8q2.9-.6 5.6-.2c1.6 0 2.1-.4 2.1-2.1.2-7.8.3-7.7-7.1-7.9-2.7-.1-3.4.9-3.1 3.3v3.4c-1.3-1.4-2.1-2.3-2.1-3.7s.5-3.1-2-3.1c-.5 0-.8-.8-.8-1.4q.2-.7 1.1-.6c1.5.2 1.7-.7 1.7-1.9v-2.5c0-5 0-5-4.9-5.4-.9-.1-1.8 0-1.8-1.2 0-1.5 1.2-.9 1.8-.9 4.9-.2 4.9-.2 4.9-5.1v-.3c0-4.5 0-4.4-4.5-4.5-1.1 0-3.2 1-3.2-1 0-1.9 2-1 3.1-1 4.5-.1 4.5-.1 4.5-4.7v-2.3c.4-2.6-.4-3.9-3.3-3.5-.6.1-1.7.4-1.8-.7q.1-1.6 1.8-1.3c3.3.7 3.4-1.3 3.3-3.7-.1-1.9-.7-4.1 1.8-5.4.6 2.2.3 4.5.3 6.6 0 1.7.4 2.5 2.4 2.5 7.9.1 7.8.2 7.9-7.7 0-2.3-.5-3.3-3-3h-5.8c1.3-2.6 3.4-2.2 5.2-2.1 2.2.1 4 .1 3.5-3q-.1-1.4 1.3-1.5c1.3 0 .8 1.1.7 1.7q-.5 3.4 2.8 2.8h1.4c5.3 0 5.3 0 5.7-5.2.1-.8-.2-1.8 1.2-1.8 1.1.1.9 1 1 1.7.3 1.7-.9 4 .6 5 1.2.8 3.3.2 5 .3 4.2 0 4.1 0 4.3-4 0-.7-.5-1.9.9-1.9s1.3 1.1 1.3 2.1v2.3q-.2 1.8 1.6 1.7h7.3q4.1-1.2 8.1 1.8l-.3.4c-4.8.3-4.8.3-4.8 5.4 0 5.3 0 5.3 5.1 5.3 4.7 0 4.7 0 4.7-4.8v-2.4c2.4.3 2.3 2.1 2.1 3.5q-.6 4.3 3.7 3.6c1.4-.2 3.1-.3 3.7 2.1h-5.4q-2.2-.2-2 1.9v.8c-.1 8.1-.1 8.1 8.1 7.6 1.3-.1 1.9-.4 1.8-1.8v-5.4q2.6 2 2.1 4.6c-.1 1.3-.2 2.7 1.9 2.5.8-.1 1.2.7 1.2 1.3.1 1.1-.9.8-1.4.7q-2 0-1.7 1.9v2.3c0 5.3 0 5.3 5.2 5.7.9.1 1.8.1 1.9 1.2.1 1.5-1.2.9-1.8.9-5.2.3-5.2.2-5.2 5.4 0 4.4 0 4.3 4.5 4.5 1.1 0 3.2-.9 3.2.9 0 2.3-2.2 1.1-3.3 1.1-4.4.2-4.4.1-4.4 4.6v1.7q-.9 4.4 3.6 3.7c.6-.1 1.7-.4 1.6.8q-.1 1.5-1.8 1.3c-3.4-.7-3.7 1.2-3.5 3.8.2 2.1.4 4.4-1.8 5.8-.6-2.6-.1-5.2-.2-7.8q.1-1.8-1.8-1.8c-8.1-.5-8.7 0-8.2 8.2q0 1.9 1.8 1.8 3.8-.1 7.8.1Zm-59.8-53.5c0-5.1 0-5.1-4.9-5.1-5.3 0-5.3 0-5.3 5.3 0 5.1 0 5.1 4.9 5.1 5.4 0 5.4 0 5.3-5.3Zm24-12.2c0-5.5 0-5.5-4.3-5.5-5.6 0-5.6 0-5.6 5.8 0 4.8 0 4.8 4.7 4.8 5.2 0 5.2 0 5.2-5.1Zm-9.8 12.3c0 5.2 0 5.2 4.5 5.2 5.4 0 5.4 0 5.4-5.5 0-4.9 0-4.9-4.8-4.9-5.1.1-5.1.1-5.1 5.2ZM195 202.9c0 5.4 0 5.4 5.2 5.4 4.7 0 4.7 0 4.7-5.3s0-5.3-5-5.3c-4.9.1-4.9.1-4.9 5.2Zm0 12.7c0 5.3 0 5.3 4.4 5.3 5.5 0 5.5 0 5.5-5.6 0-4.7 0-4.7-4.7-4.8-5.2-.1-5.2-.1-5.2 5.1Zm33.9-12.4c0-5.4 0-5.4-4.7-5.4-5.1 0-5.1 0-5.1 5.5 0 5.1 0 5.1 4.7 5.1 5.1 0 5.1 0 5.1-5.2Zm-16.7 55.7c-5.1 0-5.1 0-5.1 5.2 0 4.7 0 4.7 4.8 4.7 5.1 0 5.1 0 5.1-5.2-.1-4.7-.1-4.7-4.8-4.7Zm-24.4-26.1c5.2 0 5.2 0 5.2-4.5 0-5.3 0-5.3-5.3-5.3-4.9 0-4.9 0-4.9 4.8 0 5 0 5 5 5Zm0 12c5.1 0 5.1 0 5.2-4.6 0-5.2 0-5.2-5.3-5.2-4.9 0-4.9 0-4.9 4.8 0 5 0 5 5 5Zm12.4 2.1c-5.1 0-5.1 0-5.1 5.2 0 4.7 0 4.7 4.8 4.7 5.1 0 5.1 0 5.1-5.2 0-4.7 0-4.7-4.8-4.7Zm16.7 4.9c0-4.9 0-4.9-4.9-4.9s-5 0-5 5 0 4.9 4.9 4.9 5 0 5-5Zm36 .2c0-5.1 0-5.1-5.2-5.1-4.7 0-4.7 0-4.7 4.8 0 5.1 0 5.1 5.2 5.1 4.7 0 4.7 0 4.7-4.8Zm-24-35.9c0-5.6 0-5.6-4.7-5.6-5.1 0-5.1 0-5.1 5.2s0 5.2 5.1 5.2c4.7-.1 4.7-.1 4.7-4.8Zm2.1-.3v2.5q-.4 2.9 2.4 2.5h1.7c5.7 0 5.7 0 5.7-5.7 0-4.6 0-4.6-4.5-4.6-5.3 0-5.3 0-5.3 5.3Zm0 47.9c0 5.1 0 5.1 5.2 5.1 4.6 0 4.6 0 4.6-4.7 0-5.3 0-5.3-5.1-5.3-4.7.1-4.7.1-4.7 4.9Zm-31.2-18.9c5.1 0 5.1 0 5.1-5.2 0-4.6 0-4.6-4.8-4.6-5.1 0-5.1 0-5.1 5.1.1 4.7.1 4.7 4.8 4.7Zm0-12c5.1 0 5.1 0 5.1-5.1 0-4.7 0-4.7-4.8-4.7-5.1 0-5.1 0-5.1 5.2.1 4.6.1 4.6 4.8 4.6Zm29.1 31c0-4.9 0-4.9-4.9-4.9s-4.9 0-5 5 0 4.9 4.8 4.9c5.1 0 5.1 0 5.1-5Zm12-12c0-4.8 0-4.8-4.9-4.8s-5 0-5 5c0 4.8 0 4.8 4.9 4.8s5 0 5-5Zm-21.8 0c0 5 0 5 4.9 5s4.9 0 4.9-4.9 0-5-5-5c-4.8 0-4.8 0-4.8 4.9Zm28.7-7c5 0 5 0 5-4.9 0-4.8 0-4.8-4.8-4.9-5 0-5 0-5 4.9s0 4.9 4.8 4.9Zm-11.7-9.8c-5 0-5 0-5 4.9v.3c0 4.5 0 4.5 4.6 4.5 5.2 0 5.2 0 5.2-5.1-.1-4.6-.1-4.6-4.8-4.6Zm-12.1 9.7c4.9 0 4.9 0 4.9-4.8v-.3c0-4.7 0-4.7-4.8-4.7-5 0-5 0-5 5 0 4.8 0 4.8 4.9 4.8Zm-7.1-4.7c0-5.1 0-5.1-5.2-5.1-4.7 0-4.7 0-4.7 4.7 0 5.1 0 5.1 5.2 5.1 4.7.1 4.7.1 4.7-4.7Zm6.9-7.2c5.1 0 5.1 0 5.1-4.9v-.3c0-4.6 0-4.6-4.6-4.6-5.2 0-5.2 0-5.2 5.1 0 4.7 0 4.7 4.7 4.7Zm24.3-9.8c-5.1 0-5.1 0-5.1 5.2 0 4.6 0 4.6 4.8 4.7 5.1 0 5.1 0 5.1-5.1 0-4.8 0-4.8-4.8-4.8Zm-12.3 9.8c5.1 0 5.1 0 5.1-5.2 0-4.6 0-4.6-4.6-4.6-5.2 0-5.2 0-5.2 5.1 0 4.7 0 4.7 4.7 4.7Zm-23.9 0c5.1 0 5.1 0 5.1-5.2 0-4.7 0-4.7-4.8-4.7-5.1 0-5.1 0-5.1 4.9-.1 5-.1 5 4.8 5Z"/></g><path fill="#FFF" d="m107.5 199.8-46.2-28.5 5.8-9.3 18.2 11.2 11.3-18.3-18.2-11.2 5.8-9.3 46.2 28.5-5.8 9.3-20.2-12.5L93 178l20.2 12.5zm7-102.6-5.7-6.9 6.9-5.6 5.7 6.9zm9.1 32.1a35 35 0 0 1-6.9-12.4 24 24 0 0 1 1.6-17.1q2.6-5 7.7-9.1a25 25 0 0 1 19.6-6.4q10.3 1.2 18.7 11.5a29 29 0 0 1 7.5 20.5 26 26 0 0 1-10.1 17.9 25 25 0 0 1-19.6 6.4 28 28 0 0 1-18.5-11.3m3.2-42.2-5.7-6.9 7-5.7 5.7 6.9zm5.2 34.7q5.9 7.2 12.2 8.2t11.4-3.2q5-4 5.3-10.5t-5.7-13.6q-5.8-7.2-12-8.2-6-.9-11.3 3.3a14 14 0 0 0-5.6 10.5q-.2 6.3 5.7 13.5m80.2-39.6-3-8.6 22.3-7.9 7.2 20.4a38 38 0 0 1-19.1 15.7 30 30 0 0 1-15.2 1.6q-7.2-1.2-12.4-6.5a33 33 0 0 1-7.8-12.6 32 32 0 0 1-1.7-15.4q1.2-7.4 6.4-13 4-4.4 11.3-6.9a26 26 0 0 1 16.3-1.3q6.8 2.1 10.8 8.7l-9.6 5.5a11 11 0 0 0-6.2-4.5q-3.8-1.1-8.3.5A15 15 0 0 0 194 66q-2.5 5.7.5 14.2 3.2 9.2 8.9 12.3a14 14 0 0 0 12.2.8 21 21 0 0 0 10.6-8.7l-2.3-6.5zm46.8 9-1.4-54.3 40.3-1 .2 9.2-29.3.8.3 12.1 27.3-.7.2 9.1-27.3.6.4 14.8L300 81l.2 9.2zm58.3 2.1 15-51.8 10.5 3.1-12.4 43 26.2 7.6-2.5 8.8zm52 19 26.6-47.4 9.6 5.4-26.6 47.4zm64-24 14.5 13.8q5 4.6 6.8 7.9a19 19 0 0 1 2.5 9.3q0 5-2.3 10t-7.5 10.5a35 35 0 0 1-9.2 7.3 24 24 0 0 1-10.8 2.9q-4 0-8.6-2.1a34 34 0 0 1-7.8-5.8l-15-14.2zm1.6 14.2-24.7 26.1 5.9 5.6q3.4 3.2 5.2 4.2 2.4 1.4 4.8 1.4t5.7-1.8 7.7-6.5q4.3-4.6 5.8-7.8 1.5-3.1 1.4-6-.1-2.7-1.9-5.4-1.3-2-6.2-6.6zm18.2 59.4 6 8.9a14 14 0 0 0-5.1 7.2 12 12 0 0 0 1.6 8.2q2.5 4.7 5.8 6t5.9-.1a5 5 0 0 0 2.3-2.6q.6-1.6.2-4.6-.3-2-2.1-8.8-2.3-8.8-1.2-13.4 1.6-6.6 7.2-9.7 3.7-2 7.9-1.6 4.4.3 8.1 3.3 3.8 3 6.8 8.5 5 9 3.4 15.7a16 16 0 0 1-7.9 10.5l-5.7-9.4a10 10 0 0 0 3.9-5.5q.5-2.9-1.7-7a13 13 0 0 0-5.3-5.7 4 4 0 0 0-3.8.1 4 4 0 0 0-2.1 3 31 31 0 0 0 1.6 10.6q2.1 8 2.2 12.3 0 4.3-2 7.9a16 16 0 0 1-6.6 6 16 16 0 0 1-17.7-1.6 31 31 0 0 1-7.4-9.4q-5-9-3.4-16.2 1.5-7.3 9.1-12.6M45.2 347 88 334l-4.6-15.3 8.7-2.7 12.4 40.9-8.7 2.7-4.6-15.3-42.8 13zm16.2 44 46-27.9 20.7 34.1-7.8 4.7-15.1-24.8-10.2 6.2 14 23.1-7.7 4.7-14-23.1-12.5 7.6 15.6 25.7-7.8 4.7zm35.7 52.9 37-39.1 7.7 7.3-8.7 41.3 24.7-26.1 7.3 6.9-37 39.1-7.9-7.5 8.3-40.4-24.1 25.5zm51.8 44.2 24.9-47.7 9.4 4.9 3 42.1 16.6-31.9 9 4.7-24.9 47.7-9.7-5-3-41.1-16.2 31.1zm59.8 26.7 14.7-51.8 10.5 3-14.7 51.8zm30.5-9.4 10.6-.1q.5 5.4 3.2 8.1t7.6 3.2q5.3.4 8.1-1.5 2.8-2 3.1-5 .1-2-.8-3.3-1-1.5-3.7-2.7-1.8-.8-8.4-3.1-8.5-2.8-11.8-6.3-4.6-4.8-4-11.3.3-4 3-7.5 2.6-3.4 7.2-4.9t10.7-1q10.1.9 14.8 5.7 4.7 4.9 4.3 12.3l-10.9-.4q-.3-4.2-2.5-6.2a12 12 0 0 0-6.7-2.4q-4.8-.4-7.6 1.3a4 4 0 0 0-2 3.2q-.2 2 1.3 3.4a31 31 0 0 0 9.6 4.4q7.7 2.5 11.4 4.9 3.6 2.2 5.5 6a16 16 0 0 1 1.4 8.7 16 16 0 0 1-11 13.8 31 31 0 0 1-11.8 1 24 24 0 0 1-15.2-6 20 20 0 0 1-5.4-14.3m65 20.1-9.7-53 10.6-1.9 4.3 23.5 17.3-27.5 14.4-2.6-16.1 24.3 27 28.5-13.8 2.5-19.2-22.2-7 10.5 2.9 16zm65.8-15.9-22.8-48.2 9.8-4.6 18.9 40 24.4-11.6 3.9 8.2zm17.4-68.7 8.3-7 18.8 22.3q4.5 5.2 6.1 6.6 2.7 2 6 1.9t6.8-3.1 4.1-5.9-.8-5.4-5.5-7.3L412 420.2l8.3-7 18.2 21.6q6.3 7.4 8.2 11a15 15 0 0 1 1.9 7.2q0 3.6-2 7.4a27 27 0 0 1-6.9 7.9 28 28 0 0 1-10.1 6.1q-4.2 1.1-7.8.5a13 13 0 0 1-6.1-2.6 60 60 0 0 1-9.6-9.8zm39.9-35.4 12-17.8q3.6-5.3 5.8-7.6a14 14 0 0 1 11-4.3q3.3.2 6.1 2.2a12 12 0 0 1 5.4 12.7q4-3.3 8.3-3.5t8.2 2.4q3 2.1 4.9 5.4t2 7q0 3.6-2 7.5-1.2 2.4-7 11l-10.3 15.2zm13.5-4 10.3 7 4-5.9q3.6-5.2 4.2-6.7 1.3-2.5.9-4.7a6 6 0 0 0-2.6-3.7 6 6 0 0 0-4.2-1.1 6 6 0 0 0-3.8 2.4q-1 1.2-5.4 7.6zm17.8 11.9 11.9 8.1 5.7-8.4q3.3-4.8 3.9-6.3a7 7 0 0 0 .4-4.5 6 6 0 0 0-2.9-3.8 7 7 0 0 0-8 .1q-2 1.4-6.1 7.6zm-2.6-52.9 6.7-20.5q2-6.1 3.5-8.9a14 14 0 0 1 9.5-7.1 12 12 0 0 1 6.5.4q3.6 1.1 5.9 4.1t2.8 6.7q2.9-4.2 7-5.7t8.5 0q3.5 1.2 6.2 3.8a14 14 0 0 1 3.8 6.2q1 3.5.2 7.7-.6 2.7-3.7 12.5l-5.7 17.5zm11.9-7.5 11.8 3.9 2.2-6.8q2-6 2.2-7.6a7 7 0 0 0-.5-4.8 6 6 0 0 0-3.5-2.8q-2.4-.8-4.3.1a6 6 0 0 0-3 3.3q-.7 1.5-3.1 8.8zm20.3 6.6 13.7 4.5 3.1-9.6q1.8-5.6 2-7.2.3-2.4-.8-4.4t-3.9-2.9q-2.4-.8-4.3-.2a7 7 0 0 0-3.4 2.5q-1.5 1.8-3.7 8.9z"/><g fill="#F3E600" stroke="#FFF"><path d="M46.1 274.5a22 22 0 0 1-1.3-24.6c.9-1.4 1.5-1.6 2.8-.4a26.4 26.4 0 0 0 34.7 0c1.6-1.5 2.3-.7 3 .7a23 23 0 0 1-.1 22.8c-.7 1.2-1.1 1.8-2.7.7-13.7-9.4-22.6-9.1-36.4.8Z"/><path d="M50.9 279.5a19 19 0 0 1 28 0c-7.6 7.5-21.9 6.5-28 0ZM64 238.3c5.6 0 9.7 1.3 13.5 3.7 1.6 1 1.6 1.7.2 3-6.6 6-18.6 6-25.4.1-1.7-1.5-1.4-2.3.4-3.3q5.9-3.5 11.3-3.5Z"/></g><g fill="#F3E600" stroke="#FFF"><path d="M480.1 274.6a22 22 0 0 1-1.3-24.6c.9-1.4 1.5-1.6 2.8-.4a26.4 26.4 0 0 0 34.7 0c1.6-1.5 2.2-.7 3 .7a23 23 0 0 1-.1 22.8c-.7 1.2-1.1 1.8-2.7.7-13.7-9.4-22.6-9.1-36.4.8Z"/><path d="M484.9 279.6a19 19 0 0 1 28 0c-7.6 7.5-21.9 6.5-28 0Zm13.1-41.2c5.6 0 9.7 1.3 13.5 3.7 1.6 1 1.6 1.7.2 3-6.6 6-18.6 6-25.4.1-1.7-1.5-1.4-2.3.4-3.3q5.9-3.5 11.3-3.5Z"/></g></g></svg>