<svg xmlns="http://www.w3.org/2000/svg" width="562" height="562"><g fill="none" fill-rule="evenodd" transform="translate(0 1)"><circle cx="281" cy="280" r="280.9" fill="#0E6A31"/><circle cx="281" cy="281" r="270.9" stroke="#FFF" stroke-width="6"/><path stroke="#FFF" stroke-width="2" d="M118.3 281a163 163 0 0 0 162.2 162.8 163 163 0 0 0 163.3-162.3 163 163 0 0 0-162.3-163.2A163 163 0 0 0 118.3 281Z"/><g fill="#F3E600" stroke="#FFF"><path d="M268.2 399.3a15 15 0 0 1-.9-16.9q.7-1.4 1.9-.3c6.5 5.9 17.3 6 23.8 0 1.1-1 1.5-.5 2.1.5a16 16 0 0 1-.1 15.6c-.5.8-.8 1.2-1.9.5-9.3-6.4-15.5-6.2-24.9.6Z"/><path d="M271.5 402.7a13 13 0 0 1 19.2 0c-5.2 5.2-15 4.5-19.2 0Zm9-28.2q5.5 0 9.2 2.6 1.6.9.1 2.1a14 14 0 0 1-17.4.1q-1.6-1.4.2-2.2 4.2-2.6 7.9-2.6Z"/></g><g stroke="#FFF"><path fill="#0E6A31" d="M265.1 242.5c0 12.5-3.8 23.4-14.1 31.1a41 41 0 0 1-28.7 7 50 50 0 0 1-32.8-16 66 66 0 0 1-18.6-29.9 37 37 0 0 1 10.2-37.9c10.8-10.8 23.9-14.8 38.3-10.1a64 64 0 0 1 44 42.3q2 6.7 1.7 13.5ZM252.7 269l.5-.4c2.2-1.4 2-3.7 1.8-5.8-.2-2.6.1-4.5 3.5-3.8q1.7.3 1.8-1.3c0-1.2-1.1-.9-1.6-.8q-4.5.7-3.6-3.7v-1.7c0-4.5 0-4.4 4.4-4.6 1.1 0 3.4 1.2 3.3-1.1 0-1.8-2.1-.9-3.2-.9-4.5-.1-4.5-.1-4.5-4.5 0-5.2 0-5.1 5.2-5.4.7 0 1.9.6 1.8-.9-.1-1.1-.9-1.1-1.9-1.2-5.2-.3-5.2-.3-5.2-5.7v-2.3c-.1-1.2.2-2 1.7-1.9.5 0 1.5.4 1.4-.7 0-.6-.4-1.4-1.2-1.3-2.1.2-2-1.2-1.9-2.5a5 5 0 0 0-2.1-4.6v5.4q.2 1.8-1.8 1.8c-8.2.4-8.2.4-8.1-7.6v-.8q-.3-2.2 2-1.9h5.4c-.6-2.4-2.3-2.3-3.7-2.1q-4.3.8-3.7-3.6c.2-1.5.3-3.3-2.1-3.5v2.4c0 4.8 0 4.8-4.7 4.8-5.1 0-5.1 0-5.1-5.3 0-5 0-5 4.8-5.4l.3-.4a9 9 0 0 0-8.1-1.8h-7.3q-1.9 0-1.6-1.7v-2.3c0-.9.1-2.1-1.3-2.1s-.8 1.2-.9 1.9c-.2 4-.1 4.1-4.3 4-1.7 0-3.8.5-5-.3-1.5-1-.3-3.3-.6-5-.1-.7.2-1.6-1-1.7-1.3-.1-1.1 1-1.2 1.8-.4 5.2-.4 5.2-5.7 5.2h-1.4q-3.3.6-2.8-2.8c.1-.6.5-1.7-.7-1.7q-1.4 0-1.3 1.5c.6 3.1-1.3 3.1-3.5 3-1.9-.1-4-.5-5.2 2.1q3 .2 5.8 0c2.4-.3 3 .7 3 3-.1 7.8 0 7.7-7.9 7.7-2 0-2.4-.7-2.4-2.5 0-2.2.3-4.4-.3-6.6-2.5 1.3-1.8 3.5-1.8 5.4.1 2.5 0 4.4-3.3 3.7q-1.7-.2-1.8 1.3c0 1.1 1.2.8 1.8.7 2.9-.4 3.7.9 3.3 3.5v2.3c0 4.6 0 4.6-4.5 4.7-1.1 0-3.1-.9-3.1 1 0 2 2.1 1 3.2 1 4.5.1 4.5.1 4.5 4.5v.3c0 4.9 0 4.9-4.9 5.1-.7 0-1.9-.5-1.8.9 0 1.2 1 1.1 1.8 1.2 4.9.3 4.9.4 4.9 5.4v2.5c.1 1.2-.2 2.1-1.7 1.9-.4 0-1-.1-1.1.6 0 .6.3 1.4.8 1.4 2.5 0 1.9 1.7 2 3.1 0 1.4.8 2.3 2.1 3.7v-3.4c-.3-2.4.4-3.4 3.1-3.3 7.3.2 7.3.1 7.1 7.9q0 2.3-2.1 2.1c-1.8 0-3.7-.3-5.6.2 1.5 1.7 1.5 1.7 2.8 1.8 4.6.3 4.7.3 4.8 4.7 0 1.4.4 2.3 2.1 2.7v-2.9c0-4.6 0-4.6 4.6-4.6 5.3 0 5.3 0 5.3 5.4 0 4.5 0 4.5-4.4 4.6l-2.2.2c2.2 1.8 2.2 1.8 4.3 1.8 1.3 0 2.5-.2 2.4 1.8q.2 1.1 1.4 1.1c.8 0 .6-.8.6-1.3q0-1.8 1.8-1.5h4.2c3.9 0 3.8 0 3.9 3.9 0 1.1-.8 2.9 1.1 2.9s.9-1.9.9-2.9c.2-4.4-.6-3.8 4-3.9 5.6 0 5.6 0 5.9 5.8 0 .8-.3 1.9 1 1.9 1.3.1 1-1 1.1-1.8.2-1.9-1-4.5.6-5.5 1.4-.9 3.8-.3 5.8-.4h.6q3.5-.6 2.9 3c-.1.7-.7 2.2.8 2.2 1.4 0 1.4-1.3 1.3-2.3-.4-2.6.9-2.9 3-2.8 2.4 0 5 .6 6.7-2Zm82.2 11.9c-19-.1-32.5-9.5-36.8-26a46 46 0 0 1 1.9-30.8 64 64 0 0 1 44.8-37.8c26.7-6.4 51.2 17.4 47 44.5-2.8 18.2-23.8 45-46 49a40 40 0 0 1-10.9 1.1Zm-26.5-66.7c-1.6 2.1-1.6 2.1-1.6 4.1 0 1.4.3 2.9-2 2.8-.7 0-1.1.8-1.2 1.4-.1.9.8.7 1.2.6 1.9-.3 2 .8 1.9 2.2v4c0 4.3.4 3.6-3.8 3.7-1.1 0-3.2-.8-3.1 1.2.1 1.8 2 .8 3 .8 4.5.2 3.9-.5 4 3.9 0 5.8 0 5.8-5.7 6-.8 0-2.1-.5-2.1 1.1 0 1.3 1.1 1 1.9 1 5.9.3 5.9.3 5.9 6.4v.3q.7 3.8-3.2 3.3c-.7-.1-1.9-.6-2 .7-.1 1.1.9 1.6 2 1.4 3.3-.6 3.4 1.2 3.3 3.7-.1 1.9-.8 4.2 2.1 5.8v-7.5q-.2-2 1.9-2c8.2-.5 8.2-.5 8 7.7v.3q.3 2-1.9 1.9h-7.4c1 2.3 2.7 2.1 4.4 2.2 2.6 0 6.1-1 5 3.9-.2.8.6 1.2 1.2 1.3 1.1.1.8-.7.9-1.3.4-3.8.4-3.8 4.3-3.8h3.1q3-.5 2.5 2.5v1.7c.4 1.2-1 3.4 1 3.5 2.2 0 1-2.2 1-3.4.2-4.2.1-4.2 4.4-4.2 5.2 0 5.2 0 5.5 5.1 0 .7-.3 1.7.8 1.7 1.2.1 1.3-.8 1.3-1.7.1-1.7-.8-4 .5-4.8s3.5-.3 5.2-.3h2c1.4-.1 2.5 0 2.2 1.9q-.2.9.6 1c.3 0 .9-.3.9-.5.3-2.9 2.4-2.3 4.3-2.5q1.6-.2 3-2.1h-4.6q-2.3.3-2.1-2c.4-9.7-2.1-7.5 7.9-7.8q2.4-.1 2 2.2v5.3c1.7-.6 2.1-1.4 2.2-2.7.2-4.6.3-4.6 4.7-4.8 1.4-.1 2.5-.4 2.7-2.2h-3c-4.4 0-4.4 0-4.4-4.3 0-5.6 0-5.6 5.6-5.6 4.5 0 4.5 0 4.6 4.4 0 .5-.5 1.3.5 1.7a4 4 0 0 0 1.6-4c-.1-1.1-.1-2.1 1.5-2.1q1.2-.1 1.2-1.3c0-1-.9-.7-1.4-.8q-.9 0-1.2-.5c-.1-2.9-.5-5.9.2-8.7.3-1.4 2.9-.4 4.4-.6h.8q1.2 0 1.2-1.2c0-1-.7-.9-1.4-.9h-2c-3 .6-3.8-.8-3.4-3.5.2-1.9-.5-4.4.4-5.7 1.1-1.5 3.7-.3 5.6-.5.8-.1 1.8.3 1.8-1.1 0-1.3-1.1-1-1.9-1.1-1.9-.2-4.5.9-5.6-.6-.9-1.4-.3-3.8-.3-5.8v-.3c-.4-2.6.2-4.2 3.4-3.6.6.1 1.7.5 1.7-.7q0-1.4-1.5-1.3c-4.3.9-3.5-2.1-3.6-4.6 0-1.7.4-3.6-2-4.6l-.1 1.5c-.3 2.5 1.2 5.9-.7 7.2-1.7 1.2-4.9.2-7.4.4q-2.4 0-2-2.1v-6.2q-.2-2.5 2.3-2.2h6.5c-1.5-2.6-3.6-2.2-5.5-2.1-2.1.1-3.8.1-3.3-2.8.2-.9-.3-1.8-1.4-1.6-1.2.1-.6 1.2-.7 1.8-.2.9.5 2.4-.6 2.5-2.9.3-6 .6-8.7-.1-1.4-.4-.3-3.1-.6-4.7v-.8q.1-1.2-1.1-1.3-1 .1-1 1.1v1.4c-.1 4.6-.1 4.6-4.6 4.6h-.6c-4.5 0-4.4 0-4.7-4.5 0-.6.4-1.7-.9-1.6-1.2 0-1.2.8-1.3 1.8-.3 4.4-.3 4.4-4.8 4.4H337c-1.4-.4-3.7 1.3-4.1-1.8-.1-.7-1.5-.1-1.5.3-.4 1.6-1.5 1.5-2.8 1.6q-1.7 0-2.9 1.9c5.2.2 5.2.2 5.2 3.4 0 7.7 0 7.6-7.9 7.2q-2.1 0-1.9-2v-5.3c-2.2.5-2.2 1.9-2.2 3.3 0 3.9 0 3.9-3.8 3.9-1.5 0-3.1-.1-3.3 1.9 2.3 1.1 5.7-1.3 6.9 1.3 1 2.1.2 5 .2 7.5v.6q0 1.2-1.2 1.2c-2.7 0-5.8.7-8.1-.4-1.7-.8-.3-4-.7-6-.1-.7-.3-.7-.5-1Z"/><g fill="#FFF"><path d="M333.8 288.9c-8.2-.1-14.6-.9-21-.3a44 44 0 0 0-27.3 12.7q-9.4 9.2-18.5 18.7c-1.4 1.5-2.3 2-3.9.1q-2.8-3.2-6-6c-1.4-1.2-1.2-1.9 0-3.1q7.8-7.8 15.8-15.4a49 49 0 0 0 16.1-43.8c-2.4-23.1 6.8-41.2 23.8-56.1 9.7-8.4 20.4-15 33.3-16.7a46 46 0 0 1 50.4 60c-8 24-24.4 40.7-49.2 48.2a44 44 0 0 1-13.5 1.7Zm1.1-8q5.5.1 10.9-1c22.2-4 43.2-30.9 46-49a39 39 0 0 0-47-44.5 64 64 0 0 0-44.8 37.8 45 45 0 0 0-1.9 30.8c4.3 16.5 17.8 25.9 36.8 25.9Z"/><path d="M272.7 251.1a53 53 0 0 0 5 30.2c.6 1.1.2 1.7-.4 2.5a84 84 0 0 1-8.4 9.5c-.6.6-1.1 1.1-2.2.5a50 50 0 0 0-30.9-5.5 62 62 0 0 1-54.1-22 69 69 0 0 1-17.4-30 46.3 46.3 0 0 1 57.1-56.4c22.5 6 45.1 28.7 50.2 50.6a68 68 0 0 1 1.1 20.6Zm-7.6-8.6q.3-6.8-1.6-13.4a65 65 0 0 0-44-42.3 36 36 0 0 0-38.3 10.1 37 37 0 0 0-10.2 37.9 67 67 0 0 0 18.6 29.9c9 9.1 19.7 15.1 32.8 16a41 41 0 0 0 28.7-7c10.2-7.8 14-18.6 14-31.2ZM347.4 351l13.5 14.5c1.3 1.5 1 3.2.1 4.7a19 19 0 0 1-6.3 6.3c-3.3 2-7.3-.3-7.3-4.2zM226 363.6l-14.1 13.1c-1.4 1.3-3.2.8-4.7-.2a21 21 0 0 1-5.6-5.5c-1.1-1.5-1.9-3.1-.8-5 1.1-2 2.5-3.2 5.1-3.2q10 .2 19.9.1zm80.1-50.9-.9 1.1-7 7c-1 1-1.5.9-2.5-.1l-10.3-10.5c-.9-.9-1.3-1.5-.1-2.5l7.2-6.4c.7-.6 1.3-1 2.2-.1l10.7 10.5zM222 344.4l8.2-8.6q.5-.5 1.3-.5h22.1l-8.4 8.7q-.6.4-1.3.4zm106.8 11.5-8.6-8.3a2 2 0 0 1-.6-1.5v-22l8.5 8.1q.8.9.6 2.1zM236 330l14.3-13.5q1.3-1.4 2.6.1l8 8q1.4 1.2.2 2.6c-1.7 2.2-3.6 3.7-6.8 3.5q-9-.3-18-.1zm78.3 11.5L301 327.4q-1.5-1.6.2-3l7.6-7.6q1.5-1.7 3.1-.1c2.1 1.7 3.3 3.4 3.2 6.4q-.3 9.1-.1 18.2zm-74.3 8.6-7.8 7.3q-1 .9-2.3.9h-22.3l8.9-8.9q.3-.2.8-.2h22.2zm94.5-12.6 7.5 8.3q.5.5.6 1.2v22.9l-8.5-8.3q-.7-.7-.6-1.8v-21.7z"/></g></g><g fill="#F3E600" stroke="#FFF"><path d="M46.1 274.5a22 22 0 0 1-1.3-24.6c.9-1.4 1.5-1.6 2.8-.4a26.4 26.4 0 0 0 34.7 0c1.6-1.5 2.3-.7 3 .7a23 23 0 0 1-.1 22.8c-.7 1.2-1.1 1.8-2.7.7-13.7-9.4-22.6-9.1-36.4.8Z"/><path d="M50.9 279.5a19 19 0 0 1 28 0c-7.6 7.5-21.9 6.5-28 0ZM64 238.3c5.6 0 9.7 1.3 13.5 3.7 1.6 1 1.6 1.7.2 3-6.6 6-18.6 6-25.4.1-1.7-1.5-1.4-2.3.4-3.3q5.9-3.5 11.3-3.5Z"/></g><g fill="#F3E600" stroke="#FFF"><path d="M480.1 274.6a22 22 0 0 1-1.3-24.6c.9-1.4 1.5-1.6 2.8-.4a26.4 26.4 0 0 0 34.7 0c1.6-1.5 2.2-.7 3 .7a23 23 0 0 1-.1 22.8c-.7 1.2-1.1 1.8-2.7.7-13.7-9.4-22.6-9.1-36.4.8Z"/><path d="M484.9 279.6a19 19 0 0 1 28 0c-7.6 7.5-21.9 6.5-28 0Zm13.1-41.2c5.6 0 9.7 1.3 13.5 3.7 1.6 1 1.6 1.7.2 3-6.6 6-18.6 6-25.4.1-1.7-1.5-1.4-2.3.4-3.3q5.9-3.5 11.3-3.5Z"/></g></g></svg>
